<svg width="89" height="90" viewBox="0 0 89 90" fill="none" xmlns="http://www.w3.org/2000/svg">
<rect width="89" height="90" fill="none"/>
<path d="M43.8965 76.0725C63.7129 76.0725 79.7802 59.8247 79.7802 39.7828C79.7802 19.7409 63.7129 3.49312 43.8965 3.49312C24.0773 3.49312 8.01001 19.7438 8.01001 39.7828C8.01001 59.8219 24.0773 76.0725 43.8965 76.0725Z" fill="#880E4F"/>
<path d="M37.088 25.9538C37.0045 25.9538 36.9155 25.9313 36.8293 25.9256C35.3636 25.8413 34.9742 24.1538 35.2162 23.2256C36.7181 17.4094 35.9755 12.2428 33.5141 5.63906C33.0051 4.28906 35.0298 3.9375 35.9115 4.2975C36.7598 4.64062 37.5469 5.87813 37.8862 6.81469C39.9248 12.3891 40.495 18.2475 38.8123 24.5109C38.5898 25.3547 37.9223 25.9734 37.088 25.9538Z" fill="#EC407A"/>
<path d="M41.5797 31.3453C41.3146 31.3396 41.0545 31.2719 40.8196 31.1474C40.5848 31.023 40.3817 30.8452 40.2262 30.628C40.0707 30.4108 39.9671 30.1602 39.9235 29.8957C39.8799 29.6313 39.8975 29.3602 39.9749 29.1037C41.9051 22.635 43.318 12.06 38.8402 4.11188C38.3674 3.27656 39.5689 2.72813 40.5173 2.81813C42.6867 3.015 43.9521 6.3 44.3693 7.7625C46.3273 14.5884 45.6876 23.715 43.2624 30.1078C42.9842 30.8616 42.3307 31.365 41.5797 31.3453Z" fill="#EC407A"/>
<path d="M46.2105 36.4444C45.0284 36.0984 44.8059 34.5234 45.0785 33.6037C50.4602 15.3647 45.0424 4.15687 45.0006 4.03594C44.6669 3.13594 47.5872 1.90687 49.0279 5.55469C49.2365 6.08344 54.0397 18.2813 48.6246 35.0859C48.3659 35.8594 47.4481 36.81 46.2105 36.4416M15.5889 63.63C15.0883 63.0338 14.4625 62.0831 15.2552 61.5488C16.5679 60.6544 21.0819 59.2059 24.6892 54.2559C25.2538 53.4825 26.2049 53.1253 27.0338 53.6034C27.8598 54.0759 28.2297 55.1925 27.679 55.9744C23.2985 62.2181 17.9669 63.9056 17.7499 64.0294C17.4857 64.1869 16.0895 64.2263 15.5889 63.63ZM18.487 66.2231C18.1254 65.3091 20.4338 64.9097 20.4338 64.9097C21.4573 64.5159 25.6487 63.7228 28.9945 58.3988C29.5007 57.5888 30.5159 57.2738 31.3364 57.7519C32.1652 58.23 32.4489 59.2903 31.976 60.1228C29.7316 64.1025 25.3428 67.0809 22.339 67.8066C20.7342 68.1919 18.843 67.1175 18.487 66.2259M24.1051 71.4375C23.0427 70.8694 22.7284 69.8287 23.4042 69.6037C27.387 68.3016 31.7424 64.9406 33.8562 61.7766C34.1192 61.4145 34.5107 61.1694 34.9485 61.0929C35.3863 61.0163 35.8364 61.1142 36.2044 61.3659C36.5724 61.6176 36.8298 62.0037 36.9224 62.4431C37.0151 62.8825 36.9358 63.3412 36.7014 63.7228C34.2177 67.5084 31.6868 69.4209 27.5538 71.2322C26.7695 71.5781 25.1008 71.9719 24.1051 71.4375ZM29.1948 72.9928C31.8036 71.7834 36.1479 69.2803 38.6677 65.0109C38.9129 64.6401 39.2895 64.3785 39.7199 64.2803C40.1502 64.1821 40.6014 64.2547 40.9804 64.4831C41.3593 64.7115 41.6371 65.0783 41.7564 65.5078C41.8757 65.9373 41.8274 66.3967 41.6214 66.7912C39.5911 70.2337 36.7681 72.9563 32.4628 74.4891C30.3713 75.2428 28.3326 73.4006 29.1976 72.9928M13.1831 58.6125C7.38979 51.7078 6.36907 42.6937 7.85704 33.7641C8.19635 31.7109 8.94173 30.4312 9.67876 30.4369C10.6299 30.4537 11.5478 33.7556 11.2696 35.55C10.0181 43.6134 12.3265 51.525 17.3189 57.6788C17.6192 58.05 17.1937 59.31 16.1313 59.7797C15.066 60.2437 13.8784 59.4422 13.1831 58.6125Z" fill="#EC407A"/>
<path d="M17.597 54.7256C14.977 52.2366 12.8077 44.4459 12.7993 40.7391C12.7993 39.7772 12.8077 38.3906 13.7588 38.3906C13.7588 38.3906 15.8865 38.7197 16.2425 40.7306C16.7487 43.6275 18.334 50.2819 20.9762 53.6484C21.5686 54.4022 19.3853 56.4188 17.597 54.7256Z" fill="#EC407A"/>
<path d="M46.191 77.4141C43.165 77.5687 38.5203 76.9303 36.9962 74.8209C36.4344 74.0447 37.4412 73.3134 38.359 73.5609C43.8937 75.0713 47.7263 75.9516 54.7962 72.4781C56.2286 71.775 57.8139 72.5119 57.1047 73.5244C56.1118 74.9531 51.6256 77.1694 46.191 77.4141Z" fill="#D81B60"/>
<path d="M40.5172 71.1084C39.9805 70.3125 41.5741 68.9822 42.5197 69.1397C44.0133 69.3787 45.0507 69.6459 46.0936 69.6881C47.1616 69.7303 48.4772 69.3366 48.8805 69.3366C49.8344 69.3366 52.115 70.2844 51.531 71.0437C49.7232 73.3922 42.2055 73.6031 40.5172 71.1056" fill="#D81B60"/>
<path d="M60.1306 31.3397C59.6814 31.4154 59.2208 31.3076 58.8502 31.0399C58.4797 30.7722 58.2294 30.3666 58.1545 29.9123C58.0797 29.4581 58.1863 28.9923 58.451 28.6176C58.7157 28.2428 59.1168 27.9898 59.566 27.9141C63.6628 27.0141 69.0028 23.9259 72.1178 18.9703C72.8632 17.7806 75.1772 20.0109 73.9312 21.8953C70.1932 27.5822 65.2898 30.2203 60.2975 31.3116L60.1306 31.3397Z" fill="#EC407A"/>
<path d="M58.943 37.6313C58.4963 37.6843 58.0468 37.5586 57.6903 37.2812C57.3339 37.0038 57.0988 36.5965 57.0351 36.1463C56.9715 35.6895 57.0895 35.2259 57.3631 34.857C57.6368 34.488 58.0439 34.2437 58.4952 34.1775C65.2342 33.2016 72.5962 28.0041 75.0715 22.8009C75.4831 21.9375 78.3256 24.4884 76.2952 27.3375C72.6741 32.4084 65.568 36.6666 58.9903 37.6172C58.9718 37.6284 58.9551 37.6331 58.9402 37.6313" fill="#EC407A"/>
<path d="M59.5605 43.1578C59.0098 43.2234 58.4721 43.2675 57.9473 43.29C57.4913 43.3091 57.0464 43.1445 56.7101 42.8324C56.3738 42.5203 56.1737 42.0861 56.1534 41.625C56.1422 41.3965 56.1761 41.168 56.2531 40.9529C56.3302 40.7377 56.4487 40.5402 56.602 40.3719C56.7552 40.2036 56.9401 40.0678 57.1457 39.9725C57.3514 39.8771 57.5738 39.8241 57.7999 39.8166C64.6919 39.5241 74.7099 34.8384 77.8194 29.0109C78.2699 28.1672 81.1485 30.5578 78.701 33.6937C76.8654 36.0506 73.9729 37.9744 70.6632 39.6563C67.0754 41.4844 63.0426 42.7444 59.5605 43.1578ZM65.0034 47.9109C64.5591 47.9707 64.1108 47.9943 63.6628 47.9812C63.2073 47.9701 62.7749 47.7764 62.4606 47.4427C62.1464 47.1091 61.976 46.6629 61.9871 46.2023C61.9982 45.7417 62.1897 45.3044 62.5196 44.9867C62.8495 44.6689 63.2908 44.4966 63.7462 44.5078C66.9224 44.5781 75.5026 41.2031 79.146 35.4178C79.6606 34.6078 81.5601 37.6313 79.5076 39.9938C75.0743 45.1069 69.1975 47.4131 65.0034 47.9109ZM51.7451 41.0006C51.5308 41.0013 51.3183 40.9603 51.1194 40.8797C50.7001 40.7055 50.3638 40.3738 50.1813 39.9543C49.9987 39.5347 49.9841 39.0599 50.1404 38.6297C53.6781 28.1334 54.9158 15.7584 50.4658 4.35937C50.1181 3.465 53.5112 3.34687 54.4096 6.01313C58.6371 18.6272 57.3633 28.8366 53.3444 39.8897C53.2221 40.218 53.0032 40.5005 52.7173 40.6991C52.4313 40.8978 52.0921 41.003 51.7451 41.0006Z" fill="#EC407A"/>
<path d="M64.7197 20.9616C63.838 19.8422 60.4588 17.1422 59.1488 16.6781C58.2533 16.3547 57.9418 13.2328 58.893 13.2328C62.0219 13.2272 66.3133 16.3547 67.5899 19.35C68.5356 21.5662 66.5275 23.2453 64.7197 20.9616ZM69.0862 18.1491C66.0074 13.9866 63.5321 11.25 57.8305 9.225C56.515 8.75531 55.2718 7.12406 56.07 6.60375C57.5496 5.63344 60.3114 6.81469 61.0818 7.18594C64.0995 8.64281 66.8946 10.2038 69.2476 12.9656C70.5742 14.5266 72.1317 17.7834 71.5004 18.4922C70.5408 19.5694 69.4283 18.6047 69.0862 18.1491ZM69.9484 52.7006C69.4478 51.885 72.2374 50.7094 72.4877 47.7281C72.5711 46.7719 75.4497 45.6469 75.5109 46.6031C75.7473 50.3297 74.4457 51.6881 73.0022 52.7484C71.4225 53.8959 70.2683 53.2322 69.9484 52.7006ZM75.6778 55.2431C74.3901 54.9506 74.9074 53.55 75.5054 52.8047C77.786 49.9781 77.9946 48.4678 77.7582 45.3881C77.6386 43.8694 78.8707 42.5109 79.4547 43.2619C80.2112 44.2462 80.7814 47.1234 80.2391 49.4859C78.9597 55.1053 76.0811 55.3359 75.6778 55.2431ZM62.6421 22.5984C62.8654 22.8612 63.0329 23.1675 63.1344 23.4984C63.2261 23.8359 63.1844 24.2241 62.9619 24.4828C62.799 24.6481 62.6039 24.7774 62.389 24.8625C62.004 25.0718 61.5922 25.2261 61.1652 25.3209C60.735 25.4159 60.2852 25.335 59.9137 25.0959C59.4687 24.7725 59.2879 24.1959 59.1711 23.6616C58.9719 22.7893 58.8417 21.9025 58.7817 21.0094C58.7503 20.7954 58.7763 20.5769 58.8568 20.3766C59.4492 19.2516 62.2388 22.0866 62.6393 22.5984" fill="#D81B60"/>
<path d="M64.7197 68.9906C60.6312 68.265 56.5289 66.6506 52.5183 64.8056C51.5922 64.3556 50.7022 63.8859 49.8122 63.4078C48.3381 64.2516 46.7528 64.9322 45.098 65.4384C48.4828 67.3817 52.0727 68.9345 55.8002 70.0678C60.367 71.4459 62.2388 71.1928 62.6254 71.1366C64.1273 70.9031 65.6514 69.1819 64.7197 68.9906Z" fill="#EC407A"/>
<path d="M13.3862 25.5178C12.9328 24.6741 12.2598 22.5787 12.2598 22.5787C11.0638 22.4297 10.082 23.9906 10.5215 26.6428C10.7774 28.1672 17.5859 45.5147 37.7082 60.5953C40.0649 62.3686 42.5303 63.989 45.0896 65.4469C45.0896 65.4469 46.6916 66.5156 48.8721 65.3766C50.7245 64.4119 49.8039 63.4078 49.8039 63.4078C33.5697 54.7594 22.453 42.3563 13.3862 25.5178Z" fill="#F06292"/>
<path d="M69.2893 65.1741C64.4043 63.6108 59.6416 61.6807 55.041 59.4C54.1139 60.3844 53.1034 61.2778 52.0094 62.0803C52.9754 62.6259 53.935 63.1547 54.888 63.6666C57.8862 65.2838 69.8706 70.56 69.2893 65.1741Z" fill="#EC407A"/>
<path d="M55.0354 59.4C38.7651 51.2494 24.7587 38.4806 15.9143 16.9256C13.5864 17.4459 13.8284 20.2078 14.1621 21.1078C22.0692 42.3788 38.0809 54.1828 52.0038 62.0803C52.0038 62.0803 54.201 63.3009 55.6528 61.425C56.5233 60.2944 55.0354 59.4 55.0354 59.4Z" fill="#F06292"/>
<path d="M72.7853 60.6375C67.78 59.1803 62.9464 57.1763 58.3701 54.6609C57.8036 55.7739 57.139 56.8328 56.3843 57.825C59.9443 59.6531 63.7045 61.2 67.6539 62.3616C72.6462 63.8156 73.7254 60.8006 72.7853 60.6375Z" fill="#EC407A"/>
<path d="M20.1919 12.5381C19.6217 11.3203 17.216 13.1709 17.6332 15.0891C20.2281 24.6375 32.2069 46.125 56.3843 57.825C56.3843 57.825 58.3173 58.6828 59.0543 57.0516C59.7886 55.4147 58.3785 54.6609 58.3785 54.6609C32.9801 41.0006 23.3347 21.4312 20.1919 12.5381Z" fill="#F06292"/>
<path d="M76.2285 56.2444C70.4157 54.0788 65.2203 51.7359 60.5061 49.1006C60.4725 49.3699 60.4261 49.6374 60.3671 49.9022C60.1255 50.9447 59.8047 51.9668 59.4075 52.9594C63.6791 55.1602 68.1285 56.9884 72.7075 58.4241C76.5178 59.4984 77.1157 56.5875 76.2257 56.2416" fill="#EC407A"/>
<path d="M60.5061 49.1006C43.318 39.5437 34.6349 28.6256 25.059 9.77344C23.8909 7.875 21.0457 9.61313 22.1526 11.6297C30.5937 30.1444 39.605 41.6334 59.4075 52.9678C59.4075 52.9678 60.9233 53.5641 61.5073 51.7781C61.8772 50.6531 61.5296 49.6631 60.5061 49.1006Z" fill="#F06292"/>
<path d="M49.0335 87.1875C47.1088 87.1875 45.1536 87.1397 43.2012 87.0244C31.15 86.3494 16.1035 82.1588 11.5561 74.5313C10.1293 72.1463 5.79894 64.8844 14.6377 50.1891C19.5939 41.9484 31.506 24.3422 28.2436 7.52344C28.2436 7.52344 27.7931 5.90625 29.2171 5.29594C31.3225 4.39594 31.6646 6.22406 31.6646 6.22406C35.8309 25.8469 23.3848 43.7063 18.1755 52.3631C11.4254 63.5906 13.1887 69.1538 15.1022 72.36C17.3133 76.0556 26.6806 81.9 43.4292 82.8337C64.4833 84.0094 77.3661 78.6853 78.6899 76.7812C78.7372 76.0641 78.2783 75.2203 70.3796 75.0516C68.1879 75.0037 68.391 71.7666 69.4896 71.6428C72.7019 71.2603 78.7456 71.2603 81.5129 73.2881C82.9091 74.3119 83.4932 75.825 82.9452 77.5828C81.296 82.8478 66.6304 87.1875 49.0335 87.1875Z" fill="#FF80AB"/>
</svg>
